<svg width="41" height="40" viewBox="0 0 41 40" fill="none" xmlns="http://www.w3.org/2000/svg">
<path d="M23.2787 14.8154C21.9565 14.8154 20.7045 15.1081 19.575 15.6266V10.7079C20.6231 10.5302 21.4268 9.61895 21.4268 8.51888V5.55585C21.4268 4.32999 20.4307 3.3335 19.2045 3.3335H11.0563C9.83048 3.3335 8.83398 4.32966 8.83398 5.55585V8.51888C8.83398 9.61895 9.63769 10.5299 10.6858 10.7079L10.6861 32.2225C10.6861 34.6742 12.6788 36.6668 15.1305 36.6668C17.5822 36.6668 19.5749 34.6742 19.5749 32.2225V31.7817C20.7043 32.3002 21.9563 32.5929 23.2786 32.5929C28.1787 32.5929 32.1674 28.6041 32.1674 23.7041C32.1674 18.8037 28.1788 14.8152 23.2786 14.8152L23.2787 14.8154ZM17.7231 4.81537H19.2045C19.6119 4.81537 19.9452 5.14865 19.9452 5.55605V8.51908C19.9452 8.9265 19.6119 9.25975 19.2045 9.25975H17.7231V4.81537ZM18.0936 10.7414V16.4894C17.8417 16.6708 17.6009 16.8635 17.3713 17.0671C15.5713 15.9337 13.2859 15.4561 12.1676 15.2783V10.7414L18.0936 10.7414ZM14.0194 4.81537H16.2418V9.25975H14.0194V4.81537ZM11.0564 9.26002C10.649 9.26002 10.3157 8.92674 10.3157 8.51934V5.55631C10.3157 5.14889 10.649 4.81564 11.0564 4.81564H12.5377V9.26002H11.0564ZM18.0934 32.223C18.0934 33.8562 16.7637 35.186 15.1304 35.186C13.4971 35.186 12.1674 33.8563 12.1674 32.223V16.7785C13.3266 16.9785 15.0007 17.4117 16.3304 18.1711C15.1156 19.6933 14.3896 21.6154 14.3896 23.7044C14.3896 26.671 15.8527 29.3008 18.0933 30.9193L18.0934 32.223ZM23.2785 31.1118C19.1932 31.1118 15.8711 27.7897 15.8711 23.7044C15.8711 19.6191 19.1932 16.297 23.2785 16.297C27.3638 16.297 30.6859 19.6191 30.6859 23.7044C30.6859 27.7897 27.3638 31.1118 23.2785 31.1118Z" fill="url(#paint0_linear_10535_12797)" stroke="url(#paint1_linear_10535_12797)" stroke-width="0.5"/>
<path d="M23.8672 18.8079C23.7267 18.6263 23.5081 18.519 23.2785 18.519C23.0488 18.519 22.8302 18.6265 22.6897 18.8079L20.0638 22.2339C18.8046 23.8671 18.9491 26.2081 20.3935 27.6783C21.1637 28.4595 22.1895 28.8892 23.2785 28.8892C24.3674 28.8892 25.3934 28.4596 26.1637 27.6781C27.6082 26.2079 27.7526 23.8708 26.4934 22.2337L23.8672 18.8079ZM25.1081 26.6372C24.6193 27.1335 23.9672 27.4076 23.2785 27.4076C22.5897 27.4076 21.9377 27.1335 21.4489 26.6372C20.5193 25.6927 20.4266 24.1891 21.2378 23.1335L23.2785 20.4743L25.3191 23.1335C26.1304 24.1891 26.0376 25.6927 25.1081 26.6372H25.1081Z" fill="url(#paint2_linear_10535_12797)" stroke="url(#paint3_linear_10535_12797)" stroke-width="0.5"/>
<defs>
<linearGradient id="paint0_linear_10535_12797" x1="6.3003" y1="36.6668" x2="35.3286" y2="35.182" gradientUnits="userSpaceOnUse">
<stop stop-color="#6B4DE0"/>
<stop offset="0.544792" stop-color="#9C42E3"/>
<stop offset="1" stop-color="#C339E5"/>
</linearGradient>
<linearGradient id="paint1_linear_10535_12797" x1="6.3003" y1="36.6668" x2="35.3286" y2="35.182" gradientUnits="userSpaceOnUse">
<stop stop-color="#6B4DE0"/>
<stop offset="0.544792" stop-color="#9C42E3"/>
<stop offset="1" stop-color="#C339E5"/>
</linearGradient>
<linearGradient id="paint2_linear_10535_12797" x1="18.3228" y1="28.8892" x2="28.4466" y2="28.3083" gradientUnits="userSpaceOnUse">
<stop stop-color="#6B4DE0"/>
<stop offset="0.544792" stop-color="#9C42E3"/>
<stop offset="1" stop-color="#C339E5"/>
</linearGradient>
<linearGradient id="paint3_linear_10535_12797" x1="18.3228" y1="28.8892" x2="28.4466" y2="28.3083" gradientUnits="userSpaceOnUse">
<stop stop-color="#6B4DE0"/>
<stop offset="0.544792" stop-color="#9C42E3"/>
<stop offset="1" stop-color="#C339E5"/>
</linearGradient>
</defs>
</svg>
