<svg width="41" height="40" viewBox="0 0 41 40" fill="none" xmlns="http://www.w3.org/2000/svg">
<mask id="path-1-inside-1_10535_12726" fill="white">
<path fill-rule="evenodd" clip-rule="evenodd" d="M20.5008 3.33563C20.0374 3.33563 19.5727 3.51061 19.2254 3.85821C18.5305 4.55314 18.5305 5.71203 19.2254 6.40696C19.2585 6.43799 19.2974 6.4638 19.3326 6.49353V8.88474C17.1252 9.11343 15.1084 9.99063 13.4708 11.3193L11.78 9.62847C11.7834 9.5818 11.7959 9.5372 11.7959 9.48949C11.7959 8.50663 10.9669 7.6868 9.98431 7.6868C9.00146 7.6868 8.18163 8.50663 8.18163 9.48949C8.18163 10.4723 9.00146 11.2898 9.98431 11.2898C10.0302 11.2898 10.0738 11.281 10.1189 11.2765L11.8188 12.9718C10.4892 14.6107 9.61172 16.629 9.38195 18.838H6.99982C6.968 18.7984 6.94167 18.7595 6.90621 18.7241C6.21127 18.0291 5.05239 18.0291 4.35745 18.7241C3.66252 19.419 3.65805 20.5846 4.35276 21.2796C5.04769 21.9745 6.21099 21.9677 6.90592 21.2707C6.93643 21.2397 6.95781 21.205 6.98571 21.1726H9.38139C9.61296 23.3767 10.4915 25.3916 11.8183 27.0276L10.1183 28.7229C10.0732 28.7192 10.0297 28.7096 9.98376 28.7096C9.00091 28.7096 8.18107 29.5294 8.18107 30.512C8.18107 31.4949 9.00091 32.3236 9.98376 32.3236C10.9666 32.3236 11.7953 31.4946 11.7953 30.512C11.7953 30.4648 11.7831 30.4192 11.7794 30.373L13.4726 28.6799C15.1099 30.008 17.1251 30.8883 19.3319 31.1168V33.5036C19.2967 33.5346 19.2579 33.557 19.2248 33.5901C18.5298 34.2851 18.523 35.4507 19.2177 36.1456C19.9127 36.8406 21.0851 36.8406 21.78 36.1456C22.475 35.4507 22.4682 34.2851 21.773 33.5901C21.7407 33.5591 21.7023 33.5349 21.6682 33.5059V31.1124C23.8717 30.8792 25.8858 30.0002 27.5208 28.6708L29.2208 30.3731C29.2174 30.4198 29.2072 30.4649 29.2072 30.5121C29.2072 31.4949 30.0338 32.3237 31.0166 32.3237C31.9994 32.3237 32.8193 31.4947 32.8193 30.5121C32.8193 29.5292 31.9995 28.7094 31.0166 28.7094C30.9692 28.7094 30.9241 28.7183 30.8774 28.7227L29.1707 27.016C30.4938 25.3823 31.3695 23.3715 31.6008 21.1725H34.0102C34.0387 21.2035 34.0611 21.2419 34.0924 21.2726C34.7873 21.9676 35.9506 21.9721 36.6455 21.2771C37.3405 20.5822 37.3361 19.4165 36.6409 18.7216C35.9459 18.0267 34.787 18.0267 34.0921 18.7216C34.0566 18.7568 34.0303 18.798 33.9985 18.8355L31.6007 18.8361C31.3713 16.6323 30.4967 14.6179 29.1707 12.9811L30.8774 11.2744C30.9241 11.2778 30.9692 11.2877 31.0166 11.2877C31.9995 11.2877 32.8193 10.4702 32.8193 9.48734C32.8193 8.50449 31.9995 7.68465 31.0166 7.68465C30.0338 7.68465 29.2072 8.50449 29.2072 9.48734C29.2072 9.53506 29.2166 9.57965 29.2208 9.62632L27.5208 11.3263C25.8858 9.99689 23.8716 9.12045 21.6682 8.88707V6.48905C21.7023 6.45802 21.7406 6.4369 21.773 6.40482C22.4679 5.70989 22.4679 4.551 21.773 3.85607C21.4256 3.50847 20.9633 3.3335 20.4999 3.3335L20.5008 3.33563ZM20.469 11.1615V11.1617C20.4909 11.163 20.513 11.1638 20.5349 11.1641C22.8596 11.1774 24.9627 12.0828 26.5312 13.5529C26.6324 13.7256 26.7761 13.8695 26.949 13.9707C28.3581 15.4805 29.2391 17.4848 29.3128 19.7023C29.2596 19.9002 29.2596 20.1088 29.3128 20.307C29.2367 22.5462 28.338 24.5659 26.9033 26.0799V26.0796C26.7737 26.1657 26.6629 26.2765 26.5768 26.4059C25.0274 27.8786 22.9449 28.7945 20.6399 28.8336C20.587 28.8258 20.5336 28.8213 20.4801 28.8205C20.4366 28.8224 20.3933 28.8268 20.3502 28.8336C18.0315 28.7984 15.9407 27.8766 14.3881 26.392V26.3923C14.3133 26.2875 14.2215 26.1957 14.1167 26.1208C12.5956 24.5338 11.6568 22.383 11.6568 20.0014C11.6568 17.6553 12.5692 15.5324 14.0504 13.9527V13.9525C14.2162 13.8534 14.3549 13.7144 14.4543 13.5485C16.027 12.075 18.1348 11.1667 20.4689 11.1617L20.469 11.1615ZM19.9876 12.1174V12.1177C19.7779 12.1172 19.5719 12.173 19.3912 12.2793C19.2105 12.3857 19.0619 12.5388 18.9607 12.7224L18.3742 13.731V13.7307C18.2193 13.9999 18.1779 14.3196 18.2587 14.6192C18.3395 14.9188 18.5364 15.1741 18.8058 15.3285C19.0749 15.4831 19.3946 15.5241 19.6942 15.4427C19.9939 15.3613 20.2486 15.1642 20.4027 14.8946L20.9892 13.8862C21.1313 13.6487 21.1845 13.3686 21.1394 13.0956C21.0943 12.8225 20.9537 12.5746 20.7428 12.3954C20.5318 12.2163 20.2643 12.118 19.9876 12.1177L19.9876 12.1174ZM24.2315 13.8698L24.2313 13.87C23.9011 13.8698 23.5861 14.0093 23.3645 14.2541C23.1426 14.4987 23.0349 14.826 23.0678 15.1545L23.1614 16.3184C23.1877 16.6274 23.3356 16.9132 23.5726 17.1129C23.8099 17.3129 24.1166 17.4104 24.4256 17.3841C24.7346 17.3578 25.0204 17.2096 25.2201 16.9726C25.4198 16.7353 25.5174 16.4286 25.491 16.1197L25.3953 14.9558H25.3951C25.3742 14.6614 25.2428 14.3855 25.0269 14.1842C24.8109 13.9826 24.5267 13.8705 24.2315 13.87L24.2315 13.8698ZM14.5459 15.7567V15.757C14.1352 15.7862 13.7701 16.0289 13.5845 16.3961C13.3988 16.7635 13.4197 17.2013 13.6397 17.5492C13.8596 17.897 14.2463 18.1038 14.6575 18.0934H15.8328C16.2437 18.0843 16.6197 17.8595 16.8226 17.502C17.0255 17.1442 17.0255 16.7064 16.8226 16.3486C16.6197 15.9911 16.2437 15.7663 15.8328 15.7569H14.6575C14.6205 15.7554 14.5832 15.7554 14.5459 15.7569L14.5459 15.7567ZM27.0246 17.8444L27.0244 17.8449C26.6426 17.8655 26.2947 18.0715 26.0934 18.3969L25.4637 19.3873H25.464C25.2968 19.6494 25.2407 19.967 25.3085 20.2705C25.3761 20.5738 25.5617 20.8377 25.8243 21.0038C26.0872 21.1701 26.4051 21.2249 26.7081 21.156C27.0113 21.0872 27.2744 20.9007 27.4398 20.6376L28.0695 19.6475V19.6472C28.2268 19.4047 28.2888 19.1124 28.2432 18.8271C28.1976 18.5416 28.0476 18.2832 27.8226 18.1017C27.5975 17.9202 27.313 17.8287 27.0244 17.8448L27.0246 17.8444ZM20.2822 18.319L20.282 18.3195C19.9545 18.3117 19.6387 18.4418 19.4115 18.678C19.1847 18.9146 19.0673 19.2353 19.0882 19.5626C19.1093 19.8896 19.2668 20.1926 19.5224 20.3981L20.41 21.1465H20.4098C20.6463 21.3475 20.9532 21.4461 21.2624 21.4208C21.5717 21.3953 21.8583 21.2479 22.0588 21.0109C22.2596 20.7741 22.3577 20.4672 22.3316 20.1579C22.3055 19.8484 22.1577 19.5623 21.9204 19.3621L21.0236 18.6022V18.6024C20.817 18.4243 20.5547 18.3242 20.282 18.3193L20.2822 18.319ZM14.8221 20.4043L14.8218 20.4048C14.4095 20.4111 14.0311 20.6343 13.8259 20.9921C13.621 21.3498 13.6197 21.789 13.8225 22.148L14.384 23.1749H14.3837C14.5227 23.4628 14.7733 23.6813 15.0776 23.7794C15.3817 23.8774 15.7129 23.8467 15.9937 23.6944C16.2746 23.5418 16.4808 23.2808 16.5643 22.9723C16.6475 22.6638 16.6011 22.3345 16.4352 22.0614L15.8738 21.0348V21.0345C15.7742 20.8424 15.6229 20.6817 15.4373 20.5706C15.2513 20.4595 15.0385 20.4019 14.8218 20.4048L14.8221 20.4043ZM24.1452 22.0427L24.145 22.0432C23.7929 22.0505 23.463 22.2164 23.2469 22.4943C23.0307 22.7723 22.9517 23.1329 23.0315 23.4761L23.2732 24.6146H23.2735C23.3262 24.9278 23.504 25.2061 23.7661 25.3852C24.0281 25.5646 24.352 25.6293 24.6631 25.5649C24.974 25.5002 25.2452 25.3119 25.4144 25.0431C25.5837 24.7742 25.6361 24.4483 25.5597 24.1401L25.3179 22.9925C25.266 22.721 25.1198 22.4769 24.9051 22.303C24.6905 22.1293 24.4212 22.0373 24.145 22.0433L24.1452 22.0427ZM19.5909 23.738L19.5907 23.7385C19.5502 23.738 19.5098 23.7393 19.4697 23.7429C19.261 23.7619 19.0613 23.8368 18.8915 23.9596C18.7218 24.0827 18.588 24.2488 18.5046 24.441L18.03 25.5112C17.8925 25.7954 17.8758 26.1232 17.9838 26.4199C18.0918 26.7167 18.3152 26.9568 18.6034 27.0862C18.8915 27.2152 19.2196 27.2225 19.5132 27.106C19.8066 26.9894 20.0402 26.7589 20.1609 26.4671L20.6423 25.3993H20.6426C20.8103 25.0386 20.7831 24.6175 20.5703 24.2816C20.3576 23.9455 19.9883 23.7408 19.5906 23.7382L19.5909 23.738Z"/>
</mask>
<path fill-rule="evenodd" clip-rule="evenodd" d="M20.5008 3.33563C20.0374 3.33563 19.5727 3.51061 19.2254 3.85821C18.5305 4.55314 18.5305 5.71203 19.2254 6.40696C19.2585 6.43799 19.2974 6.4638 19.3326 6.49353V8.88474C17.1252 9.11343 15.1084 9.99063 13.4708 11.3193L11.78 9.62847C11.7834 9.5818 11.7959 9.5372 11.7959 9.48949C11.7959 8.50663 10.9669 7.6868 9.98431 7.6868C9.00146 7.6868 8.18163 8.50663 8.18163 9.48949C8.18163 10.4723 9.00146 11.2898 9.98431 11.2898C10.0302 11.2898 10.0738 11.281 10.1189 11.2765L11.8188 12.9718C10.4892 14.6107 9.61172 16.629 9.38195 18.838H6.99982C6.968 18.7984 6.94167 18.7595 6.90621 18.7241C6.21127 18.0291 5.05239 18.0291 4.35745 18.7241C3.66252 19.419 3.65805 20.5846 4.35276 21.2796C5.04769 21.9745 6.21099 21.9677 6.90592 21.2707C6.93643 21.2397 6.95781 21.205 6.98571 21.1726H9.38139C9.61296 23.3767 10.4915 25.3916 11.8183 27.0276L10.1183 28.7229C10.0732 28.7192 10.0297 28.7096 9.98376 28.7096C9.00091 28.7096 8.18107 29.5294 8.18107 30.512C8.18107 31.4949 9.00091 32.3236 9.98376 32.3236C10.9666 32.3236 11.7953 31.4946 11.7953 30.512C11.7953 30.4648 11.7831 30.4192 11.7794 30.373L13.4726 28.6799C15.1099 30.008 17.1251 30.8883 19.3319 31.1168V33.5036C19.2967 33.5346 19.2579 33.557 19.2248 33.5901C18.5298 34.2851 18.523 35.4507 19.2177 36.1456C19.9127 36.8406 21.0851 36.8406 21.78 36.1456C22.475 35.4507 22.4682 34.2851 21.773 33.5901C21.7407 33.5591 21.7023 33.5349 21.6682 33.5059V31.1124C23.8717 30.8792 25.8858 30.0002 27.5208 28.6708L29.2208 30.3731C29.2174 30.4198 29.2072 30.4649 29.2072 30.5121C29.2072 31.4949 30.0338 32.3237 31.0166 32.3237C31.9994 32.3237 32.8193 31.4947 32.8193 30.5121C32.8193 29.5292 31.9995 28.7094 31.0166 28.7094C30.9692 28.7094 30.9241 28.7183 30.8774 28.7227L29.1707 27.016C30.4938 25.3823 31.3695 23.3715 31.6008 21.1725H34.0102C34.0387 21.2035 34.0611 21.2419 34.0924 21.2726C34.7873 21.9676 35.9506 21.9721 36.6455 21.2771C37.3405 20.5822 37.3361 19.4165 36.6409 18.7216C35.9459 18.0267 34.787 18.0267 34.0921 18.7216C34.0566 18.7568 34.0303 18.798 33.9985 18.8355L31.6007 18.8361C31.3713 16.6323 30.4967 14.6179 29.1707 12.9811L30.8774 11.2744C30.9241 11.2778 30.9692 11.2877 31.0166 11.2877C31.9995 11.2877 32.8193 10.4702 32.8193 9.48734C32.8193 8.50449 31.9995 7.68465 31.0166 7.68465C30.0338 7.68465 29.2072 8.50449 29.2072 9.48734C29.2072 9.53506 29.2166 9.57965 29.2208 9.62632L27.5208 11.3263C25.8858 9.99689 23.8716 9.12045 21.6682 8.88707V6.48905C21.7023 6.45802 21.7406 6.4369 21.773 6.40482C22.4679 5.70989 22.4679 4.551 21.773 3.85607C21.4256 3.50847 20.9633 3.3335 20.4999 3.3335L20.5008 3.33563ZM20.469 11.1615V11.1617C20.4909 11.163 20.513 11.1638 20.5349 11.1641C22.8596 11.1774 24.9627 12.0828 26.5312 13.5529C26.6324 13.7256 26.7761 13.8695 26.949 13.9707C28.3581 15.4805 29.2391 17.4848 29.3128 19.7023C29.2596 19.9002 29.2596 20.1088 29.3128 20.307C29.2367 22.5462 28.338 24.5659 26.9033 26.0799V26.0796C26.7737 26.1657 26.6629 26.2765 26.5768 26.4059C25.0274 27.8786 22.9449 28.7945 20.6399 28.8336C20.587 28.8258 20.5336 28.8213 20.4801 28.8205C20.4366 28.8224 20.3933 28.8268 20.3502 28.8336C18.0315 28.7984 15.9407 27.8766 14.3881 26.392V26.3923C14.3133 26.2875 14.2215 26.1957 14.1167 26.1208C12.5956 24.5338 11.6568 22.383 11.6568 20.0014C11.6568 17.6553 12.5692 15.5324 14.0504 13.9527V13.9525C14.2162 13.8534 14.3549 13.7144 14.4543 13.5485C16.027 12.075 18.1348 11.1667 20.4689 11.1617L20.469 11.1615ZM19.9876 12.1174V12.1177C19.7779 12.1172 19.5719 12.173 19.3912 12.2793C19.2105 12.3857 19.0619 12.5388 18.9607 12.7224L18.3742 13.731V13.7307C18.2193 13.9999 18.1779 14.3196 18.2587 14.6192C18.3395 14.9188 18.5364 15.1741 18.8058 15.3285C19.0749 15.4831 19.3946 15.5241 19.6942 15.4427C19.9939 15.3613 20.2486 15.1642 20.4027 14.8946L20.9892 13.8862C21.1313 13.6487 21.1845 13.3686 21.1394 13.0956C21.0943 12.8225 20.9537 12.5746 20.7428 12.3954C20.5318 12.2163 20.2643 12.118 19.9876 12.1177L19.9876 12.1174ZM24.2315 13.8698L24.2313 13.87C23.9011 13.8698 23.5861 14.0093 23.3645 14.2541C23.1426 14.4987 23.0349 14.826 23.0678 15.1545L23.1614 16.3184C23.1877 16.6274 23.3356 16.9132 23.5726 17.1129C23.8099 17.3129 24.1166 17.4104 24.4256 17.3841C24.7346 17.3578 25.0204 17.2096 25.2201 16.9726C25.4198 16.7353 25.5174 16.4286 25.491 16.1197L25.3953 14.9558H25.3951C25.3742 14.6614 25.2428 14.3855 25.0269 14.1842C24.8109 13.9826 24.5267 13.8705 24.2315 13.87L24.2315 13.8698ZM14.5459 15.7567V15.757C14.1352 15.7862 13.7701 16.0289 13.5845 16.3961C13.3988 16.7635 13.4197 17.2013 13.6397 17.5492C13.8596 17.897 14.2463 18.1038 14.6575 18.0934H15.8328C16.2437 18.0843 16.6197 17.8595 16.8226 17.502C17.0255 17.1442 17.0255 16.7064 16.8226 16.3486C16.6197 15.9911 16.2437 15.7663 15.8328 15.7569H14.6575C14.6205 15.7554 14.5832 15.7554 14.5459 15.7569L14.5459 15.7567ZM27.0246 17.8444L27.0244 17.8449C26.6426 17.8655 26.2947 18.0715 26.0934 18.3969L25.4637 19.3873H25.464C25.2968 19.6494 25.2407 19.967 25.3085 20.2705C25.3761 20.5738 25.5617 20.8377 25.8243 21.0038C26.0872 21.1701 26.4051 21.2249 26.7081 21.156C27.0113 21.0872 27.2744 20.9007 27.4398 20.6376L28.0695 19.6475V19.6472C28.2268 19.4047 28.2888 19.1124 28.2432 18.8271C28.1976 18.5416 28.0476 18.2832 27.8226 18.1017C27.5975 17.9202 27.313 17.8287 27.0244 17.8448L27.0246 17.8444ZM20.2822 18.319L20.282 18.3195C19.9545 18.3117 19.6387 18.4418 19.4115 18.678C19.1847 18.9146 19.0673 19.2353 19.0882 19.5626C19.1093 19.8896 19.2668 20.1926 19.5224 20.3981L20.41 21.1465H20.4098C20.6463 21.3475 20.9532 21.4461 21.2624 21.4208C21.5717 21.3953 21.8583 21.2479 22.0588 21.0109C22.2596 20.7741 22.3577 20.4672 22.3316 20.1579C22.3055 19.8484 22.1577 19.5623 21.9204 19.3621L21.0236 18.6022V18.6024C20.817 18.4243 20.5547 18.3242 20.282 18.3193L20.2822 18.319ZM14.8221 20.4043L14.8218 20.4048C14.4095 20.4111 14.0311 20.6343 13.8259 20.9921C13.621 21.3498 13.6197 21.789 13.8225 22.148L14.384 23.1749H14.3837C14.5227 23.4628 14.7733 23.6813 15.0776 23.7794C15.3817 23.8774 15.7129 23.8467 15.9937 23.6944C16.2746 23.5418 16.4808 23.2808 16.5643 22.9723C16.6475 22.6638 16.6011 22.3345 16.4352 22.0614L15.8738 21.0348V21.0345C15.7742 20.8424 15.6229 20.6817 15.4373 20.5706C15.2513 20.4595 15.0385 20.4019 14.8218 20.4048L14.8221 20.4043ZM24.1452 22.0427L24.145 22.0432C23.7929 22.0505 23.463 22.2164 23.2469 22.4943C23.0307 22.7723 22.9517 23.1329 23.0315 23.4761L23.2732 24.6146H23.2735C23.3262 24.9278 23.504 25.2061 23.7661 25.3852C24.0281 25.5646 24.352 25.6293 24.6631 25.5649C24.974 25.5002 25.2452 25.3119 25.4144 25.0431C25.5837 24.7742 25.6361 24.4483 25.5597 24.1401L25.3179 22.9925C25.266 22.721 25.1198 22.4769 24.9051 22.303C24.6905 22.1293 24.4212 22.0373 24.145 22.0433L24.1452 22.0427ZM19.5909 23.738L19.5907 23.7385C19.5502 23.738 19.5098 23.7393 19.4697 23.7429C19.261 23.7619 19.0613 23.8368 18.8915 23.9596C18.7218 24.0827 18.588 24.2488 18.5046 24.441L18.03 25.5112C17.8925 25.7954 17.8758 26.1232 17.9838 26.4199C18.0918 26.7167 18.3152 26.9568 18.6034 27.0862C18.8915 27.2152 19.2196 27.2225 19.5132 27.106C19.8066 26.9894 20.0402 26.7589 20.1609 26.4671L20.6423 25.3993H20.6426C20.8103 25.0386 20.7831 24.6175 20.5703 24.2816C20.3576 23.9455 19.9883 23.7408 19.5906 23.7382L19.5909 23.738Z" fill="url(#paint0_linear_10535_12726)" stroke="url(#paint1_linear_10535_12726)" stroke-width="2" mask="url(#path-1-inside-1_10535_12726)"/>
<defs>
<linearGradient id="paint0_linear_10535_12726" x1="0.214761" y1="36.6668" x2="41.5677" y2="33.6452" gradientUnits="userSpaceOnUse">
<stop stop-color="#6B4DE0"/>
<stop offset="0.544792" stop-color="#9C42E3"/>
<stop offset="1" stop-color="#C339E5"/>
</linearGradient>
<linearGradient id="paint1_linear_10535_12726" x1="0.214761" y1="36.6668" x2="41.5677" y2="33.6452" gradientUnits="userSpaceOnUse">
<stop stop-color="#6B4DE0"/>
<stop offset="0.544792" stop-color="#9C42E3"/>
<stop offset="1" stop-color="#C339E5"/>
</linearGradient>
</defs>
</svg>
