<svg width="41" height="40" viewBox="0 0 41 40" fill="none" xmlns="http://www.w3.org/2000/svg">
<path d="M29.1116 21.0886V25.278C29.1116 26.0146 28.8189 26.7212 28.2981 27.2423C27.7771 27.7631 27.0705 28.0558 26.3339 28.0558H19.7365C19.4297 28.0558 19.1809 27.807 19.1809 27.5002C19.1809 27.1934 19.4297 26.9447 19.7365 26.9447H26.3339C26.7758 26.9447 27.1999 26.7691 27.5124 26.4566C27.8248 26.1441 28.0005 25.72 28.0005 25.2781V21.0886C28.0005 20.7816 28.2492 20.5331 28.556 20.5331C28.8628 20.5331 29.1116 20.7816 29.1116 21.0886L29.1116 21.0886ZM21.3339 29.653C21.0271 29.653 20.7783 29.9017 20.7783 30.2085C20.7783 30.5032 20.6613 30.7859 20.453 30.9942C20.2446 31.2025 19.9619 31.3196 19.6672 31.3196H18.2784C17.9837 31.3196 17.701 31.2025 17.4927 30.9942C17.2843 30.7859 17.1673 30.5032 17.1673 30.2085V27.5002C17.1673 27.3529 17.1087 27.2115 17.0046 27.1074C16.9004 27.0032 16.759 26.9447 16.6117 26.9447H11.6118C11.1698 26.9447 10.7457 26.7691 10.4332 26.4566C10.1208 26.1441 9.94515 25.72 9.94515 25.2781V6.11125C9.94515 5.66929 10.1207 5.24516 10.4332 4.93272C10.7457 4.62028 11.1699 4.44463 11.6118 4.44463H26.3342C26.7761 4.44463 27.2003 4.62022 27.5127 4.93272C27.8251 5.24522 28.0008 5.66935 28.0008 6.11125V7.8245C28.0008 8.13129 28.2495 8.38005 28.5563 8.38005C28.8631 8.38005 29.1119 8.13129 29.1119 7.8245V6.11125C29.1119 5.37462 28.8192 4.66809 28.2984 4.14695C27.7774 3.62612 27.0708 3.3335 26.3341 3.3335H11.6117C10.8751 3.3335 10.1686 3.62615 9.64744 4.14695C9.12661 4.66802 8.83398 5.37462 8.83398 6.11125V25.2781C8.83398 26.0147 9.12664 26.7212 9.64744 27.2423C10.1685 27.7632 10.8751 28.0558 11.6117 28.0558H16.0561V30.2085C16.0561 30.7978 16.2903 31.3631 16.7069 31.78C17.1238 32.1966 17.6891 32.4307 18.2783 32.4307H18.4172V36.1113C18.4172 36.4181 18.666 36.6668 18.9728 36.6668C19.2796 36.6668 19.5283 36.4181 19.5283 36.1113V32.4307H19.6672C20.2565 32.4307 20.8217 32.1966 21.2386 31.78C21.6553 31.363 21.8894 30.7978 21.8894 30.2085C21.8894 30.0612 21.8309 29.9199 21.7267 29.8157C21.6226 29.7115 21.4812 29.653 21.3339 29.653L21.3339 29.653ZM13.9727 7.15286H23.9726C24.2672 7.15286 24.55 7.26992 24.7583 7.47825C24.9666 7.68658 25.0837 7.96932 25.0837 8.26396C25.0837 8.57075 25.3325 8.81951 25.6393 8.81951C25.946 8.81951 26.1948 8.57075 26.1948 8.26396C26.1948 7.67468 25.9607 7.10943 25.544 6.69254C25.1271 6.27588 24.5619 6.04176 23.9726 6.04176H13.9727C13.3834 6.04176 12.8182 6.27588 12.4013 6.69254C11.9846 7.10945 11.7505 7.67469 11.7505 8.26396V15.6944C11.7505 16.2836 11.9846 16.8489 12.4013 17.2658C12.8182 17.6824 13.3834 17.9166 13.9727 17.9166H21.2412C21.548 17.9166 21.7968 17.6678 21.7968 17.361C21.7968 17.0542 21.548 16.8055 21.2412 16.8055H13.9727C13.6781 16.8055 13.3953 16.6884 13.187 16.4801C12.9787 16.2717 12.8616 15.989 12.8616 15.6944V8.26396C12.8616 7.96932 12.9787 7.68658 13.187 7.47825C13.3953 7.26992 13.6781 7.15286 13.9727 7.15286ZM17.8616 21.2499H20.0838C20.3784 21.2499 20.6611 21.3669 20.8695 21.5753C21.0778 21.7836 21.1949 22.0663 21.1949 22.361C21.1949 22.6678 21.4436 22.9165 21.7504 22.9165C22.0572 22.9165 22.306 22.6678 22.306 22.361C22.306 21.7717 22.0718 21.2064 21.6552 20.7896C21.2383 20.3729 20.673 20.1388 20.0838 20.1388H17.8616C17.0677 20.1388 16.334 20.5624 15.937 21.2499C15.5402 21.9374 15.5402 22.7846 15.937 23.4721C16.3341 24.1596 17.0677 24.5832 17.8616 24.5832H20.0838C20.3905 24.5832 20.6393 24.3344 20.6393 24.0276C20.6393 23.7208 20.3905 23.4721 20.0838 23.4721H17.8616C17.4645 23.4721 17.0977 23.2603 16.8993 22.9165C16.7009 22.5728 16.7009 22.1492 16.8993 21.8054C17.0977 21.4617 17.4645 21.2499 17.8616 21.2499ZM26.6812 19.3054C23.4964 19.3054 21.6117 15.7201 23.4297 13.0957L24.945 10.9124C25.3409 10.3429 25.9904 10.0032 26.6839 10.0032C27.3776 10.0032 28.0271 10.343 28.4227 10.9124L29.9351 13.0936C31.7555 15.7213 29.8609 19.3054 26.6812 19.3054V19.3054ZM29.0194 13.7291L27.507 11.5479H27.5068C27.3195 11.2765 27.0108 11.1146 26.6812 11.1146C26.3515 11.1146 26.0427 11.2765 25.8555 11.5479L24.3431 13.7291H24.3429C23.9453 14.3013 23.7715 14.9992 23.8541 15.6911C23.9367 16.3829 24.27 17.0205 24.7908 17.483C25.3119 17.9456 25.9845 18.2011 26.6811 18.2011C27.3778 18.2011 28.0504 17.9456 28.5715 17.483C29.0923 17.0205 29.4256 16.3829 29.5082 15.6911C29.5908 14.9992 29.417 14.3012 29.0194 13.7291H29.0194Z" fill="url(#paint0_linear_10535_12827)" stroke="url(#paint1_linear_10535_12827)" stroke-width="0.7"/>
<defs>
<linearGradient id="paint0_linear_10535_12827" x1="6.46562" y1="36.6668" x2="33.6088" y2="35.369" gradientUnits="userSpaceOnUse">
<stop stop-color="#6B4DE0"/>
<stop offset="0.544792" stop-color="#9C42E3"/>
<stop offset="1" stop-color="#C339E5"/>
</linearGradient>
<linearGradient id="paint1_linear_10535_12827" x1="6.46562" y1="36.6668" x2="33.6088" y2="35.369" gradientUnits="userSpaceOnUse">
<stop stop-color="#6B4DE0"/>
<stop offset="0.544792" stop-color="#9C42E3"/>
<stop offset="1" stop-color="#C339E5"/>
</linearGradient>
</defs>
</svg>
