<svg width="21" height="20" viewBox="0 0 21 20" fill="none" xmlns="http://www.w3.org/2000/svg">
<path d="M16.8619 2.29973C16.6721 2.11471 16.4098 2 16.1199 2H14.3699C14.1764 2 14.02 2.1529 14.02 2.34102V3.02293C14.02 3.21142 14.1765 3.36395 14.3699 3.36395H15.7699V6.00756C15.7699 6.82963 15.2275 7.52878 14.7891 8.18927C14.0998 9.22772 12.5404 9.22772 11.851 8.18964C11.3974 7.50697 10.8702 6.85915 10.8702 6.00759V3.36397H12.2702C12.4637 3.36397 12.6201 3.21144 12.6201 3.02295L12.62 2.34104C12.62 2.15292 12.4635 2.00002 12.2699 2.00002H10.5199C10.23 2.00002 9.96758 2.11473 9.77756 2.29975C9.58742 2.48477 9.46995 2.74061 9.46995 3.02309V5.30286C9.46995 6.48579 9.83776 7.58673 10.4578 8.60385C11.5625 10.4156 12.6201 11.0263 12.5909 12.0109C12.5717 12.6423 12.5909 13.2754 12.5909 13.9078C12.5909 15.4118 11.3345 16.6361 9.79091 16.6361H9.1198C7.57601 16.6361 6.31984 15.4118 6.31984 13.9078V11.4482C7.33152 11.1549 8.06981 10.2431 8.06981 9.1615C8.06981 7.8433 6.97273 6.77434 5.61986 6.77434C4.2666 6.77434 3.16992 7.8433 3.16992 9.1615C3.16992 10.2431 3.90772 11.155 4.91989 11.4482V13.9076C4.92027 16.1678 6.80031 18 9.11993 18H9.79104C12.1102 18 13.9911 16.1676 13.9911 13.9076V12.8039C13.9911 12.2831 13.9763 11.321 14.2099 10.8521C14.9879 10.2456 15.8722 9.61427 16.3387 8.69251C16.9982 7.69946 17.1699 6.48576 17.1699 5.30296V3.02281C17.1699 2.74032 17.0521 2.48474 16.8619 2.29947L16.8619 2.29973ZM4.30774 9.16112C4.30774 8.45638 4.89675 7.88235 5.62015 7.88235C6.34342 7.88235 6.93255 8.45638 6.93255 9.16112C6.93255 9.86624 6.34342 10.4399 5.62015 10.4399C4.89662 10.44 4.30774 9.86611 4.30774 9.16112Z" fill="#9E62B3"/>
</svg>
