<svg width="41" height="40" viewBox="0 0 41 40" fill="none" xmlns="http://www.w3.org/2000/svg">
<path d="M19.34 32.9999C18.9247 32.9999 18.5877 32.6567 18.5877 32.2337L18.5907 28.7846C18.5937 27.0423 18.5983 25.3018 18.5801 23.561C18.5756 23.138 18.9096 22.7917 19.3249 22.7871H19.3325C19.7432 22.7871 20.0803 23.1257 20.0848 23.5457C20.1029 25.2926 20.0984 27.0392 20.0953 28.7876L20.0923 32.2338C20.0921 32.6568 19.7551 33 19.34 33L19.34 32.9999Z" fill="url(#paint0_linear_10535_12857)" stroke="url(#paint1_linear_10535_12857)" stroke-width="0.5"/>
<path d="M10.288 29.1721C6.68034 29.1721 3.51795 26.4016 2.77003 22.5861C1.8749 18.0244 3.20776 13.7615 6.73134 9.91586C8.38632 8.10766 10.4969 7.13004 13.008 7.0077L13.2621 7C15.1231 7 16.7316 7.99916 17.5604 9.67215C18.2719 11.1064 18.3172 12.6401 17.6899 13.9917C17.1212 15.2158 16.0409 16.169 14.66 16.6975C15.5926 18.7814 15.3249 20.4332 13.8296 21.7829C13.9167 21.8381 14.0011 21.8948 14.0852 21.9546C15.215 22.7621 15.847 23.9097 15.8213 25.1033C15.7956 26.2526 15.1519 27.3236 14.0505 28.0407C13.1236 28.6443 11.9834 29.0461 10.9195 29.1425C10.7092 29.1627 10.4999 29.1717 10.2879 29.1717L10.288 29.1721ZM13.2622 8.53221L13.0816 8.53683C10.9756 8.64097 9.20777 9.45751 7.82984 10.9607C4.6133 14.4743 3.43963 18.1797 4.2461 22.2873C4.85384 25.3887 7.39488 27.6396 10.2895 27.6396C10.455 27.6396 10.6219 27.6319 10.7889 27.6165C11.6072 27.5429 12.5235 27.2182 13.2428 26.7523C13.9229 26.308 14.3065 25.7104 14.3201 25.0713C14.3352 24.3988 13.935 23.7184 13.2232 23.2095C13.0141 23.0594 12.787 22.9337 12.5356 22.7942L12.0752 22.5325C11.848 22.3976 11.7052 22.1511 11.7007 21.8812C11.6961 21.6116 11.8316 21.3602 12.0558 21.2178C13.971 20.0027 14.1906 18.8412 12.9224 16.6117C12.802 16.3988 12.7884 16.1428 12.8849 15.9191C12.9811 15.6954 13.1768 15.5315 13.4116 15.4794C14.7777 15.1713 15.8413 14.39 16.3302 13.3372C16.7558 12.4209 16.7168 11.3651 16.2188 10.3646C15.6499 9.21693 14.5442 8.53207 13.2623 8.53207L13.2622 8.53221Z" fill="url(#paint2_linear_10535_12857)" stroke="url(#paint3_linear_10535_12857)" stroke-width="0.5"/>
<path d="M19.3321 24.3199C18.9213 24.3199 18.5843 23.9813 18.5797 23.5614C18.5631 21.8758 17.6862 21.0223 15.8989 20.9487C15.4851 20.9302 15.1617 20.5749 15.1783 20.1504C15.198 19.729 15.5876 19.4288 15.9621 19.4165C18.5588 19.5237 20.0617 21.0285 20.0859 23.546C20.0904 23.969 19.7564 24.3153 19.3411 24.3199H19.332H19.3321Z" fill="url(#paint4_linear_10535_12857)" stroke="url(#paint5_linear_10535_12857)" stroke-width="0.5"/>
<path d="M21.6636 33C21.2482 33 20.9112 32.6568 20.9112 32.2338L20.9082 28.9608C20.9037 27.1557 20.8992 25.3508 20.9188 23.5457C20.9233 23.1257 21.2603 22.7871 21.6711 22.7871H21.6787C22.094 22.7917 22.428 23.138 22.4234 23.561C22.4038 25.36 22.4083 27.1603 22.4129 28.9577L22.4159 32.2338C22.4159 32.6568 22.0789 33 21.6636 33H21.6636Z" fill="url(#paint6_linear_10535_12857)" stroke="url(#paint7_linear_10535_12857)" stroke-width="0.5"/>
<path d="M30.7127 29.1721C30.5021 29.1721 30.2913 29.1629 30.0777 29.1432C29.0156 29.0467 27.8752 28.6453 26.9484 28.0414C25.8485 27.3242 25.2032 26.2533 25.1775 25.104C25.1518 23.912 25.7837 22.7643 26.9121 21.9553C26.9964 21.8955 27.0806 21.8388 27.1692 21.7837C25.6739 20.4323 25.4059 18.7818 26.3388 16.6982C24.9596 16.1695 23.8794 15.2163 23.3107 13.9936C22.6833 12.6407 22.7284 11.1067 23.4401 9.6741C24.2705 8.00085 25.8774 7.00195 27.7369 7.00195L27.991 7.00965C30.5018 7.13227 32.6142 8.11138 34.2692 9.91781C37.7912 13.7654 39.1241 18.028 38.2305 22.588C37.4812 26.402 34.3203 29.1721 30.7125 29.1721L30.7127 29.1721ZM27.7384 8.53229C26.4567 8.53229 25.3523 9.21722 24.7836 10.3633C24.2857 11.364 24.2466 12.4212 24.6723 13.3359C25.1611 14.3903 26.2247 15.1701 27.5909 15.4781C27.8241 15.5302 28.0195 15.6957 28.1175 15.9178C28.2122 16.1415 28.2004 16.3975 28.08 16.6104C26.8116 18.8398 27.0315 20.0014 28.9466 21.2165C29.1708 21.3592 29.3063 21.6103 29.3018 21.8799C29.2972 22.1495 29.1544 22.3963 28.9272 22.5312L28.4683 22.7931C28.217 22.9342 27.9898 23.0597 27.7792 23.2084C27.0677 23.7171 26.669 24.3959 26.6823 25.0703C26.6959 25.7093 27.0795 26.3067 27.7595 26.7513C28.4786 27.2187 29.3949 27.5434 30.2119 27.6155C33.3232 27.899 36.1107 25.5654 36.7563 22.2847C37.5612 18.1781 36.3878 14.4734 33.1713 10.9581C31.7931 9.45487 30.0255 8.63814 27.9192 8.53399L27.7384 8.53229Z" fill="url(#paint8_linear_10535_12857)" stroke="url(#paint9_linear_10535_12857)" stroke-width="0.5"/>
<path d="M21.6703 24.3199H21.6628C21.2475 24.3153 20.9135 23.969 20.918 23.546C20.9437 21.027 22.4466 19.5237 25.0417 19.4165C25.4901 19.4273 25.8059 19.7292 25.8255 20.1504C25.8421 20.5734 25.5185 20.9302 25.1049 20.9487C23.3177 21.0223 22.4405 21.8758 22.4241 23.5614C22.4181 23.9813 22.0811 24.3199 21.6703 24.3199H21.6703Z" fill="url(#paint10_linear_10535_12857)" stroke="url(#paint11_linear_10535_12857)" stroke-width="0.5"/>
<defs>
<linearGradient id="paint0_linear_10535_12857" x1="18.4152" y1="33" x2="20.3085" y2="32.9794" gradientUnits="userSpaceOnUse">
<stop stop-color="#6B4DE0"/>
<stop offset="0.544792" stop-color="#9C42E3"/>
<stop offset="1" stop-color="#C339E5"/>
</linearGradient>
<linearGradient id="paint1_linear_10535_12857" x1="18.4152" y1="33" x2="20.3085" y2="32.9794" gradientUnits="userSpaceOnUse">
<stop stop-color="#6B4DE0"/>
<stop offset="0.544792" stop-color="#9C42E3"/>
<stop offset="1" stop-color="#C339E5"/>
</linearGradient>
<linearGradient id="paint2_linear_10535_12857" x1="0.802875" y1="29.1721" x2="20.246" y2="28.1705" gradientUnits="userSpaceOnUse">
<stop stop-color="#6B4DE0"/>
<stop offset="0.544792" stop-color="#9C42E3"/>
<stop offset="1" stop-color="#C339E5"/>
</linearGradient>
<linearGradient id="paint3_linear_10535_12857" x1="0.802875" y1="29.1721" x2="20.246" y2="28.1705" gradientUnits="userSpaceOnUse">
<stop stop-color="#6B4DE0"/>
<stop offset="0.544792" stop-color="#9C42E3"/>
<stop offset="1" stop-color="#C339E5"/>
</linearGradient>
<linearGradient id="paint4_linear_10535_12857" x1="14.6448" y1="24.3199" x2="20.7342" y2="23.8745" gradientUnits="userSpaceOnUse">
<stop stop-color="#6B4DE0"/>
<stop offset="0.544792" stop-color="#9C42E3"/>
<stop offset="1" stop-color="#C339E5"/>
</linearGradient>
<linearGradient id="paint5_linear_10535_12857" x1="14.6448" y1="24.3199" x2="20.7342" y2="23.8745" gradientUnits="userSpaceOnUse">
<stop stop-color="#6B4DE0"/>
<stop offset="0.544792" stop-color="#9C42E3"/>
<stop offset="1" stop-color="#C339E5"/>
</linearGradient>
<linearGradient id="paint6_linear_10535_12857" x1="20.7393" y1="33" x2="22.634" y2="32.9794" gradientUnits="userSpaceOnUse">
<stop stop-color="#6B4DE0"/>
<stop offset="0.544792" stop-color="#9C42E3"/>
<stop offset="1" stop-color="#C339E5"/>
</linearGradient>
<linearGradient id="paint7_linear_10535_12857" x1="20.7393" y1="33" x2="22.634" y2="32.9794" gradientUnits="userSpaceOnUse">
<stop stop-color="#6B4DE0"/>
<stop offset="0.544792" stop-color="#9C42E3"/>
<stop offset="1" stop-color="#C339E5"/>
</linearGradient>
<linearGradient id="paint8_linear_10535_12857" x1="21.174" y1="29.1722" x2="40.6164" y2="28.1706" gradientUnits="userSpaceOnUse">
<stop stop-color="#6B4DE0"/>
<stop offset="0.544792" stop-color="#9C42E3"/>
<stop offset="1" stop-color="#C339E5"/>
</linearGradient>
<linearGradient id="paint9_linear_10535_12857" x1="21.174" y1="29.1722" x2="40.6164" y2="28.1706" gradientUnits="userSpaceOnUse">
<stop stop-color="#6B4DE0"/>
<stop offset="0.544792" stop-color="#9C42E3"/>
<stop offset="1" stop-color="#C339E5"/>
</linearGradient>
<linearGradient id="paint10_linear_10535_12857" x1="20.385" y1="24.3199" x2="26.4745" y2="23.8745" gradientUnits="userSpaceOnUse">
<stop stop-color="#6B4DE0"/>
<stop offset="0.544792" stop-color="#9C42E3"/>
<stop offset="1" stop-color="#C339E5"/>
</linearGradient>
<linearGradient id="paint11_linear_10535_12857" x1="20.385" y1="24.3199" x2="26.4745" y2="23.8745" gradientUnits="userSpaceOnUse">
<stop stop-color="#6B4DE0"/>
<stop offset="0.544792" stop-color="#9C42E3"/>
<stop offset="1" stop-color="#C339E5"/>
</linearGradient>
</defs>
</svg>
