<svg width="40" height="40" viewBox="0 0 40 40" fill="none" xmlns="http://www.w3.org/2000/svg">
<path d="M34.9965 22.2201C35.4385 22.2201 35.8625 22.0445 36.175 21.7321C36.4874 21.4196 36.663 20.9955 36.663 20.5537C36.663 20.1118 36.4874 19.6877 36.175 19.3753C35.8625 19.0628 35.4384 18.8872 34.9965 18.8872C34.5547 18.8872 34.1305 19.0628 33.8181 19.3753C33.5057 19.6877 33.3301 20.1118 33.3301 20.5537C33.3306 20.9956 33.5064 21.4192 33.8186 21.7316C34.1311 22.0439 34.5547 22.2197 34.9966 22.2202L34.9965 22.2201ZM34.9965 19.9981C35.2212 19.9981 35.4238 20.1335 35.5096 20.3411C35.5957 20.5487 35.5483 20.7875 35.3894 20.9464C35.2304 21.1054 34.9916 21.1528 34.784 21.0667C34.5764 20.9809 34.441 20.7783 34.441 20.5536C34.4413 20.2469 34.6898 19.9984 34.9965 19.9981Z" fill="#9E62B3"/>
<path d="M30.5532 18.8871C30.9951 18.8871 31.4192 18.7115 31.7316 18.3991C32.044 18.0866 32.2196 17.6625 32.2196 17.2207C32.2196 16.7788 32.0441 16.3547 31.7316 16.0422C31.4191 15.7298 30.995 15.5542 30.5532 15.5542C30.1113 15.5542 29.6872 15.7298 29.3748 16.0422C29.0624 16.3547 28.8867 16.7788 28.8867 17.2207C28.8872 17.6626 29.063 18.0862 29.3753 18.3986C29.6877 18.7108 30.1113 18.8867 30.5532 18.8872L30.5532 18.8871ZM30.5532 16.6651C30.7779 16.6651 30.9805 16.8005 31.0663 17.0081C31.1523 17.2157 31.105 17.4545 30.946 17.6134C30.787 17.7724 30.5482 17.8198 30.3406 17.7337C30.1331 17.6479 29.9977 17.4453 29.9977 17.2206C29.9979 16.9139 30.2464 16.6654 30.5532 16.6651Z" fill="#9E62B3"/>
<path d="M31.109 21.6649C31.109 21.9716 30.8603 22.2204 30.5535 22.2204C30.2468 22.2204 29.998 21.9716 29.998 21.6649C29.998 21.3581 30.2468 21.1094 30.5535 21.1094C30.8603 21.1094 31.109 21.3581 31.109 21.6649Z" fill="#9E62B3"/>
<path d="M35.5524 16.1097C35.5524 16.4165 35.3037 16.6652 34.9969 16.6652C34.6901 16.6652 34.4414 16.4165 34.4414 16.1097C34.4414 15.8029 34.6901 15.5542 34.9969 15.5542C35.3037 15.5542 35.5524 15.8029 35.5524 16.1097Z" fill="#9E62B3"/>
<path d="M35.493 29.9973H35.5527C35.7 29.9973 35.8414 29.9387 35.9455 29.8346C36.0497 29.7304 36.1082 29.5891 36.1082 29.4418V26.1088C36.1082 25.9615 36.0497 25.8201 35.9455 25.716C35.8414 25.6118 35.7 25.5533 35.5527 25.5533H34.4417V24.4423H34.9972C35.304 24.4423 35.5527 24.1936 35.5527 23.8868C35.5527 23.58 35.304 23.3313 34.9972 23.3313H30.5533C30.2465 23.3313 29.9978 23.58 29.9978 23.8868C29.9978 24.1936 30.2465 24.4423 30.5533 24.4423H31.1087V25.9791C30.9007 26.1653 30.7425 26.4009 30.6487 26.6643H27.5347L24.4428 21.5111V18.3318C24.442 17.6918 24.2206 17.0715 23.8159 16.5758C23.4111 16.0799 22.8477 15.7388 22.2208 15.6099V10.5549C22.2208 7.97478 20.8444 5.59091 18.6101 4.30082C16.3757 3.01105 13.623 3.01105 11.3886 4.30082C9.15426 5.59084 7.7779 7.97478 7.7779 10.5549V15.6099C7.15098 15.7389 6.58755 16.0798 6.18283 16.5758C5.77811 17.0716 5.55665 17.6918 5.55591 18.3318V21.6222L3.3404 36.0232C3.31585 36.1834 3.36247 36.3463 3.46787 36.4693C3.57351 36.5923 3.72751 36.663 3.88945 36.663H21.6653C21.8126 36.663 21.954 36.6044 22.0581 36.5003C22.1623 36.3961 22.2208 36.2548 22.2208 36.1075V29.5729L23.3906 31.9122C23.4846 32.1005 23.677 32.2192 23.8873 32.2192H28.9272C28.7328 33.5576 29.2476 34.901 30.287 35.7665C31.3263 36.632 32.7405 36.8951 34.0217 36.4616C35.3028 36.0281 36.2667 34.96 36.5668 33.6412C36.8669 32.3224 36.4602 30.9426 35.493 29.9973H35.493ZM34.9972 28.8863H32.2197C31.913 28.886 31.6645 28.6375 31.6642 28.3308V27.2198C31.6645 26.913 31.913 26.6645 32.2197 26.6643H34.9972V28.8863ZM32.2197 24.4423H33.3307V25.5533H32.2197V24.4423ZM23.3318 18.3318V21.1093H17.2213V19.4756C18.7591 18.7108 19.7977 17.2114 19.9736 15.5031C20.3857 15.423 20.7743 15.2501 21.1098 14.9974V16.1099C21.1098 16.2572 21.1683 16.3985 21.2725 16.5027C21.3767 16.6068 21.518 16.6654 21.6653 16.6654C22.1072 16.6659 22.5308 16.8417 22.843 17.1541C23.1555 17.4664 23.3313 17.8899 23.3318 18.3319L23.3318 18.3318ZM11.9997 22.8869L11.1109 22.2203H12.9897L14.4439 25.129V27.7753L12.2219 24.8125V23.3313C12.2219 23.1565 12.1395 22.9918 11.9997 22.8869ZM11.1109 11.1104H18.8878V13.9727L16.4238 14.3834L16.0519 13.6394H16.0516C15.9576 13.4511 15.7652 13.3324 15.5549 13.3324H14.4439C14.2336 13.3324 14.0412 13.4511 13.9469 13.6394L13.5749 14.3834L11.1109 13.9727L11.1109 11.1104ZM19.9988 11.2059C20.4345 11.3601 20.7867 11.6884 20.9709 12.1122C21.1551 12.536 21.1552 13.0177 20.9709 13.4415C20.7867 13.8653 20.4345 14.1937 19.9988 14.3479V11.2059ZM12.9088 9.99938L17.0314 7.93808L18.4057 9.99938H12.9088ZM10.0001 14.3479C9.56442 14.1936 9.21229 13.8653 9.02805 13.4415C8.84382 13.0177 8.8438 12.5361 9.02805 12.1122C9.21231 11.6884 9.56445 11.3601 10.0001 11.2059V14.3479ZM13.7973 15.5469C14.0379 15.5868 14.2764 15.4653 14.3853 15.2473L14.7873 14.4434H15.2116L15.6136 15.2473C15.723 15.4653 15.9613 15.5868 16.2018 15.5469L18.8855 15.0995C18.8508 16.4645 18.1026 17.7111 16.9145 18.3836C15.7264 19.0562 14.2727 19.0562 13.0846 18.3836C11.8964 17.7111 11.1483 16.4645 11.1135 15.0995L13.7973 15.5469ZM14.9996 19.9983C15.3736 19.9981 15.7461 19.9557 16.1106 19.8723V21.5336L14.9996 23.7556L13.8886 21.5336V19.8723C14.2532 19.9557 14.6256 19.9981 14.9996 19.9983ZM15.5551 25.1289L17.0093 22.2203H18.8881L17.9993 22.8869C17.8594 22.9918 17.7771 23.1565 17.7771 23.3313V24.8125L15.5551 27.7753V25.1289ZM14.9996 4.44417C16.6198 4.4459 18.1729 5.09045 19.3183 6.23591C20.4638 7.38138 21.1083 8.93454 21.1101 10.5546V10.5561C20.7143 10.2578 20.2453 10.0715 19.7526 10.0167L17.6838 6.91338C17.5283 6.68052 17.2238 6.59943 16.9731 6.72491L10.4176 10.0028V10.0026C9.86411 10.0296 9.3317 10.2226 8.88928 10.5561V10.5546C8.89101 8.93448 9.53556 7.38138 10.681 6.23591C11.8265 5.09045 13.3797 4.44594 14.9997 4.44416L14.9996 4.44417ZM8.33365 16.6651C8.48096 16.6651 8.62231 16.6066 8.72647 16.5024C8.83062 16.3982 8.88915 16.2569 8.88915 16.1096V14.9971C9.22468 15.2498 9.61326 15.4227 10.0254 15.5028C10.2012 17.2112 11.2398 18.7105 12.7776 19.4753V21.109H6.66716V18.3316C6.66766 17.8896 6.84348 17.4661 7.15595 17.1538C7.46817 16.8414 7.89174 16.6656 8.33366 16.6651L8.33365 16.6651ZM6.58831 22.2201H9.25965L11.1111 23.6088V24.9975C11.1111 25.1178 11.1501 25.2346 11.2222 25.3308L14.4441 29.6265V35.552H8.88915V27.2195C8.88915 26.9128 8.64041 26.664 8.33365 26.664C8.02689 26.664 7.77816 26.9128 7.77816 27.2195V35.552H4.53717L6.58831 22.2201ZM24.2309 31.108L22.1624 26.971C22.0473 26.7407 21.7887 26.6196 21.538 26.6789C21.2873 26.7382 21.1102 26.9619 21.1102 27.2195V35.552H15.5552V29.6265L18.7771 25.3308C18.8493 25.2346 18.8882 25.1178 18.8882 24.9975V23.6088L20.7399 22.2201H23.573L26.744 27.5052C26.8444 27.6728 27.0255 27.775 27.2206 27.775H30.5536V28.3305C30.5534 28.7052 30.6801 29.0688 30.9129 29.3621C30.1935 29.7569 29.6164 30.3675 29.2631 31.108H24.2309ZM32.7754 35.552C32.0388 35.552 31.3323 35.2593 30.8113 34.7386C30.2905 34.2176 29.9979 33.511 29.9979 32.7745C29.9979 32.0379 30.2905 31.3315 30.8113 30.8104C31.3323 30.2896 32.0388 29.997 32.7754 29.997C33.5119 29.997 34.2184 30.2896 34.7395 30.8104C35.2602 31.3314 35.5528 32.0379 35.5528 32.7745C35.5521 33.5108 35.2592 34.2168 34.7385 34.7376C34.2177 35.2583 33.5117 35.5512 32.7754 35.552Z" fill="#9E62B3"/>
</svg>
