<svg width="41" height="40" viewBox="0 0 41 40" fill="none" xmlns="http://www.w3.org/2000/svg">
<path d="M6.56836 36.6668C6.54837 36.6668 6.52837 36.6668 6.50791 36.6663C5.67339 36.6524 4.98845 35.593 4.87964 34.1475C4.81686 33.3218 4.65503 32.5218 4.48413 31.674C4.33137 30.9174 4.17349 30.1345 4.09351 29.3351C3.74288 25.8251 3.5557 21.6756 4.82803 17.5107C4.89964 17.2757 4.97638 17.0408 5.05752 16.8069C5.57975 15.2975 6.16032 14.1514 6.88532 13.2004C8.76359 10.7348 12.0113 9.65502 16.8139 9.90937C18.4989 9.99772 21.185 10.3644 22.8008 10.7276C24.2968 11.0631 25.8486 11.1826 27.4129 11.0815C29.703 10.9331 32.319 10.276 33.7748 9.48313C34.6265 9.01973 35.6403 9.14598 36.3569 9.80656C37.0575 10.452 37.263 11.4288 36.8796 12.295C36.3697 13.4477 35.2852 14.8526 33.6553 16.4704C33.2014 16.9215 32.608 17.5205 32.0458 18.1487C30.5459 19.8266 25.103 25.5802 18.0351 29.1779C16.6135 29.9012 15.1824 30.3995 13.7808 30.6578C12.3364 30.9238 10.377 31.7427 9.24093 34.1283C9.20768 34.1978 9.1821 34.3006 9.14699 34.4194C8.95028 35.0932 8.49086 36.6665 6.56866 36.6665L6.56836 36.6668ZM5.89057 17.8352C4.67569 21.8124 4.85938 25.8245 5.19955 29.2245C5.27396 29.969 5.42626 30.724 5.57343 31.4546C5.7434 32.2979 5.91965 33.1696 5.98731 34.0641C6.05846 35.0034 6.4163 35.5073 6.55348 35.5596C7.57122 35.5573 7.83789 34.9386 8.08062 34.1074C8.13178 33.9318 8.17619 33.7802 8.2378 33.6502C9.64542 30.6931 12.1889 29.8214 13.5793 29.5647C14.8754 29.3252 16.2054 28.862 17.5314 28.1875C24.4273 24.6775 29.7511 19.0494 31.2183 17.4084C31.8001 16.7585 32.4083 16.1444 32.8734 15.6829C34.4045 14.1629 35.4106 12.8718 35.8644 11.8464C36.0923 11.3321 35.8796 10.8779 35.605 10.6248C35.3171 10.3597 34.8256 10.1777 34.3066 10.4604C32.45 11.4709 29.5429 12.0583 27.4852 12.1915C25.8146 12.2982 24.157 12.1715 22.558 11.8127C20.992 11.4611 18.3893 11.1054 16.7558 11.0198C12.2848 10.7838 9.43022 11.6932 7.7695 13.8749C7.11843 14.7294 6.59064 15.7771 6.10843 17.1715C6.03077 17.3915 5.9587 17.6131 5.8908 17.8353L5.89057 17.8352Z" fill="url(#paint0_linear_10535_29778)" stroke="url(#paint1_linear_10535_29778)" stroke-width="0.5"/>
<path d="M21.5175 9.44404C21.2108 9.44404 20.962 9.19525 20.962 8.88857C20.962 7.35702 19.7159 6.11095 18.1844 6.11095C17.8777 6.11095 17.6289 5.86216 17.6289 5.55548C17.6289 5.24879 17.8777 5 18.1844 5C20.3288 5 22.0732 6.74434 22.0732 8.88881C22.0732 9.19526 21.8242 9.44405 21.5175 9.44405L21.5175 9.44404Z" fill="url(#paint2_linear_10535_29778)" stroke="url(#paint3_linear_10535_29778)" stroke-width="0.5"/>
<path d="M23.7391 9.44404C23.4324 9.44404 23.1836 9.19525 23.1836 8.88857C23.1836 8.58188 23.4324 8.33309 23.7391 8.33309C25.2706 8.33309 26.5167 7.08702 26.5167 5.55548C26.5167 5.24879 26.7655 5 27.0722 5C27.3788 5 27.6276 5.24879 27.6276 5.55548C27.6281 7.6997 25.8831 9.44404 23.7391 9.44404Z" fill="url(#paint4_linear_10535_29778)" stroke="url(#paint5_linear_10535_29778)" stroke-width="0.5"/>
<path d="M23.7389 25.5554C23.6077 25.5554 23.4754 25.5094 23.3701 25.4155C23.1406 25.2116 23.1201 24.8605 23.3241 24.6309C27.3989 20.0467 24.5289 16.0554 24.4052 15.8875C24.223 15.6415 24.2736 15.2937 24.5192 15.1109C24.7647 14.9277 25.1114 14.9777 25.2953 15.2225C25.3314 15.2702 28.847 20.0914 24.1548 25.3695C24.0444 25.4925 23.8923 25.5553 23.7389 25.5553L23.7389 25.5554Z" fill="url(#paint6_linear_10535_29778)" stroke="url(#paint7_linear_10535_29778)" stroke-width="0.5"/>
<path d="M23.7385 12.0228C23.7097 12.0228 23.6813 12.0205 23.6525 12.0161C23.2858 11.9584 22.9198 11.8933 22.5564 11.8117C22.2202 11.7361 21.8303 11.6612 21.4192 11.5885C21.1542 11.5417 20.9609 11.3106 20.9609 11.0418V5.00016C20.9609 4.08123 21.7087 3.3335 22.6276 3.3335C23.5465 3.3335 24.2943 4.08123 24.2943 5.00016V11.4674C24.2943 11.6297 24.2231 11.7841 24.0999 11.8897C23.998 11.9762 23.8697 12.0229 23.7386 12.0229L23.7385 12.0228ZM22.8003 10.7277C22.9275 10.7561 23.0554 10.7828 23.183 10.8077V5.00018C23.183 4.69396 22.9342 4.4447 22.6276 4.4447C22.3209 4.4447 22.0721 4.69419 22.0721 5.00018V10.5784C22.3313 10.6273 22.5769 10.6773 22.8003 10.7277L22.8003 10.7277Z" fill="url(#paint8_linear_10535_29778)" stroke="url(#paint9_linear_10535_29778)" stroke-width="0.2"/>
<path d="M19.8503 36.6665C18.9313 36.6665 18.1836 35.9187 18.1836 34.9998L18.1838 28.1718C18.1838 27.9686 18.2943 27.7819 18.4726 27.6847C19.1931 27.2908 19.9305 26.8547 20.6636 26.3898C20.8348 26.281 21.0515 26.2743 21.2291 26.3722C21.407 26.4701 21.5169 26.6565 21.5169 26.8588V34.9999C21.5169 35.9188 20.7692 36.6666 19.8503 36.6666L19.8503 36.6665ZM19.2948 28.4992V34.9998C19.2948 35.306 19.5436 35.5553 19.8503 35.5553C20.1569 35.5553 20.4057 35.3058 20.4057 34.9998L20.406 27.8546C20.0337 28.0785 19.6626 28.294 19.2948 28.4996L19.2948 28.4992Z" fill="url(#paint10_linear_10535_29778)" stroke="url(#paint11_linear_10535_29778)" stroke-width="0.2"/>
<path d="M11.4757 11.4484C11.2962 11.4484 11.1242 11.3612 11.0186 11.2085C10.4961 10.4519 9.64466 10.0003 8.73972 10.0003H8.18424C7.26532 10.0003 6.51758 9.25259 6.51758 8.33366C6.51758 7.41473 7.26532 6.66699 8.18424 6.66699H8.73972C11.133 6.66699 13.3179 8.08021 14.3057 10.2679C14.3801 10.4323 14.3696 10.6223 14.2785 10.7774C14.1873 10.9329 14.0262 11.0345 13.8469 11.0501C13.042 11.1189 12.2937 11.2468 11.6225 11.4289C11.5734 11.4424 11.5246 11.4484 11.4757 11.4484L11.4757 11.4484ZM8.18399 7.77796C7.8773 7.77796 7.62851 8.02744 7.62851 8.33343C7.62851 8.63965 7.8773 8.88891 8.18399 8.88891H8.73946C9.87881 8.88891 10.9567 9.39719 11.6933 10.2644C12.0816 10.1721 12.4899 10.0961 12.9145 10.0366C11.9996 8.64402 10.4329 7.77795 8.7397 7.77795L8.18399 7.77796Z" fill="url(#paint12_linear_10535_29778)" stroke="url(#paint13_linear_10535_29778)" stroke-width="0.2"/>
<path d="M29.8507 29.4441H28.7395C26.1323 29.4441 23.8106 27.7853 22.9636 25.3158C22.8848 25.0858 22.9648 24.8308 23.1608 24.6875C23.7942 24.2236 24.4375 23.7282 25.073 23.2143C25.2318 23.086 25.4497 23.0548 25.638 23.1343C25.8268 23.2138 25.9563 23.3903 25.9752 23.5949C26.1091 25.03 27.2975 26.1114 28.7395 26.1114H29.8507C30.7696 26.1114 31.5174 26.8592 31.5174 27.7781C31.5174 28.6968 30.7696 29.444 29.8507 29.444L29.8507 29.4441ZM24.1597 25.3302C24.9486 27.1413 26.7413 28.3329 28.7395 28.3329H29.8507C30.1574 28.3329 30.4062 28.0834 30.4062 27.7774C30.4062 27.4712 30.1574 27.2219 29.8507 27.2219H28.7395C27.0484 27.2219 25.6061 26.1591 25.0723 24.6336C24.7679 24.8714 24.4629 25.1042 24.1597 25.3302Z" fill="url(#paint14_linear_10535_29778)" stroke="url(#paint15_linear_10535_29778)" stroke-width="0.2"/>
<defs>
<linearGradient id="paint0_linear_10535_29778" x1="0.225003" y1="36.6668" x2="41.3593" y2="33.0286" gradientUnits="userSpaceOnUse">
<stop stop-color="#6B4DE0"/>
<stop offset="0.544792" stop-color="#9C42E3"/>
<stop offset="1" stop-color="#C339E5"/>
</linearGradient>
<linearGradient id="paint1_linear_10535_29778" x1="0.225003" y1="36.6668" x2="41.3593" y2="33.0286" gradientUnits="userSpaceOnUse">
<stop stop-color="#6B4DE0"/>
<stop offset="0.544792" stop-color="#9C42E3"/>
<stop offset="1" stop-color="#C339E5"/>
</linearGradient>
<linearGradient id="paint2_linear_10535_29778" x1="17.1463" y1="9.44405" x2="22.6603" y2="9.0411" gradientUnits="userSpaceOnUse">
<stop stop-color="#6B4DE0"/>
<stop offset="0.544792" stop-color="#9C42E3"/>
<stop offset="1" stop-color="#C339E5"/>
</linearGradient>
<linearGradient id="paint3_linear_10535_29778" x1="17.1463" y1="9.44405" x2="22.6603" y2="9.0411" gradientUnits="userSpaceOnUse">
<stop stop-color="#6B4DE0"/>
<stop offset="0.544792" stop-color="#9C42E3"/>
<stop offset="1" stop-color="#C339E5"/>
</linearGradient>
<linearGradient id="paint4_linear_10535_29778" x1="22.701" y1="9.44404" x2="28.2147" y2="9.04113" gradientUnits="userSpaceOnUse">
<stop stop-color="#6B4DE0"/>
<stop offset="0.544792" stop-color="#9C42E3"/>
<stop offset="1" stop-color="#C339E5"/>
</linearGradient>
<linearGradient id="paint5_linear_10535_29778" x1="22.701" y1="9.44404" x2="28.2147" y2="9.04113" gradientUnits="userSpaceOnUse">
<stop stop-color="#6B4DE0"/>
<stop offset="0.544792" stop-color="#9C42E3"/>
<stop offset="1" stop-color="#C339E5"/>
</linearGradient>
<linearGradient id="paint6_linear_10535_29778" x1="22.8133" y1="25.5554" x2="27.0644" y2="25.4551" gradientUnits="userSpaceOnUse">
<stop stop-color="#6B4DE0"/>
<stop offset="0.544792" stop-color="#9C42E3"/>
<stop offset="1" stop-color="#C339E5"/>
</linearGradient>
<linearGradient id="paint7_linear_10535_29778" x1="22.8133" y1="25.5554" x2="27.0644" y2="25.4551" gradientUnits="userSpaceOnUse">
<stop stop-color="#6B4DE0"/>
<stop offset="0.544792" stop-color="#9C42E3"/>
<stop offset="1" stop-color="#C339E5"/>
</linearGradient>
<linearGradient id="paint8_linear_10535_29778" x1="20.599" y1="12.0229" x2="24.7534" y2="11.9064" gradientUnits="userSpaceOnUse">
<stop stop-color="#6B4DE0"/>
<stop offset="0.544792" stop-color="#9C42E3"/>
<stop offset="1" stop-color="#C339E5"/>
</linearGradient>
<linearGradient id="paint9_linear_10535_29778" x1="20.599" y1="12.0229" x2="24.7534" y2="11.9064" gradientUnits="userSpaceOnUse">
<stop stop-color="#6B4DE0"/>
<stop offset="0.544792" stop-color="#9C42E3"/>
<stop offset="1" stop-color="#C339E5"/>
</linearGradient>
<linearGradient id="paint10_linear_10535_29778" x1="17.8216" y1="36.6666" x2="21.9771" y2="36.5689" gradientUnits="userSpaceOnUse">
<stop stop-color="#6B4DE0"/>
<stop offset="0.544792" stop-color="#9C42E3"/>
<stop offset="1" stop-color="#C339E5"/>
</linearGradient>
<linearGradient id="paint11_linear_10535_29778" x1="17.8216" y1="36.6666" x2="21.9771" y2="36.5689" gradientUnits="userSpaceOnUse">
<stop stop-color="#6B4DE0"/>
<stop offset="0.544792" stop-color="#9C42E3"/>
<stop offset="1" stop-color="#C339E5"/>
</linearGradient>
<linearGradient id="paint12_linear_10535_29778" x1="5.66655" y1="11.4484" x2="15.304" y2="10.2941" gradientUnits="userSpaceOnUse">
<stop stop-color="#6B4DE0"/>
<stop offset="0.544792" stop-color="#9C42E3"/>
<stop offset="1" stop-color="#C339E5"/>
</linearGradient>
<linearGradient id="paint13_linear_10535_29778" x1="5.66655" y1="11.4484" x2="15.304" y2="10.2941" gradientUnits="userSpaceOnUse">
<stop stop-color="#6B4DE0"/>
<stop offset="0.544792" stop-color="#9C42E3"/>
<stop offset="1" stop-color="#C339E5"/>
</linearGradient>
<linearGradient id="paint14_linear_10535_29778" x1="22.0015" y1="29.4441" x2="32.6048" y2="28.3972" gradientUnits="userSpaceOnUse">
<stop stop-color="#6B4DE0"/>
<stop offset="0.544792" stop-color="#9C42E3"/>
<stop offset="1" stop-color="#C339E5"/>
</linearGradient>
<linearGradient id="paint15_linear_10535_29778" x1="22.0015" y1="29.4441" x2="32.6048" y2="28.3972" gradientUnits="userSpaceOnUse">
<stop stop-color="#6B4DE0"/>
<stop offset="0.544792" stop-color="#9C42E3"/>
<stop offset="1" stop-color="#C339E5"/>
</linearGradient>
</defs>
</svg>
