<svg width="40" height="40" viewBox="0 0 40 40" fill="none" xmlns="http://www.w3.org/2000/svg">
<path fill-rule="evenodd" clip-rule="evenodd" d="M31.5668 3.3335H9.37199C8.1802 3.3335 7.19362 4.32 7.19362 5.51187L7.19336 14.9301L7.19336 20.6854L7.19336 34.4885C7.19336 35.6802 8.17987 36.6668 9.37174 36.6668H17.6981H20.2228L31.5668 36.6668C32.7586 36.6668 33.7451 35.6803 33.7451 34.4884V5.51187C33.7041 4.32008 32.7589 3.3335 31.5668 3.3335ZM31.5258 34.8995C31.7726 34.8995 31.9369 34.694 31.9369 34.4884L31.978 34.4881V5.51159C31.978 5.26473 31.7724 5.10045 31.5669 5.10045H9.3721C9.12525 5.10045 8.96096 5.30602 8.96096 5.51159V19.0653V24.1414V34.4881C8.96096 34.735 9.16653 34.8992 9.3721 34.8992L16.1882 34.8993L18.7422 34.8994L31.5258 34.8995Z" fill="#9E62B3" stroke="#9E62B3" stroke-width="0.4"/>
<path d="M27.0451 24.1719H13.8515C13.3584 24.1719 12.9473 24.583 12.9473 25.0761C12.9473 25.5692 13.3584 25.9803 13.8515 25.9803L27.0451 25.98C27.5382 25.98 27.9493 25.5689 27.9493 25.0758C27.9493 24.5827 27.5382 24.1719 27.0451 24.1719V24.1719Z" fill="#9E62B3" stroke="#9E62B3" stroke-width="0.4"/>
<path d="M27.0451 29.5151H13.8515C13.3584 29.5151 12.9473 29.9263 12.9473 30.4194C12.9473 30.9125 13.3584 31.3236 13.8515 31.3236H27.0451C27.5382 31.3236 27.9493 30.9125 27.9493 30.4194C27.9493 29.9263 27.5382 29.5151 27.0451 29.5151Z" fill="#9E62B3" stroke="#9E62B3" stroke-width="0.4"/>
<path d="M27.0451 18.8696H13.8515C13.3584 18.8696 12.9473 19.2808 12.9473 19.7739C12.9473 20.267 13.3584 20.6781 13.8515 20.6781H27.0451C27.5382 20.6781 27.9493 20.267 27.9493 19.7739C27.9493 19.2395 27.5382 18.8696 27.0451 18.8696Z" fill="#9E62B3" stroke="#9E62B3" stroke-width="0.4"/>
<path d="M15.4148 15.4584H17.0177C17.2233 15.4584 17.3466 15.2941 17.3466 15.1295V12.5813C17.3466 12.3757 17.1823 12.2524 17.0177 12.2524H15.4148C15.2092 12.2524 15.0859 12.4167 15.0859 12.5813V15.1295C15.0859 15.2941 15.2502 15.4584 15.4148 15.4584Z" fill="#9E62B3" stroke="#9E62B3" stroke-width="0.4"/>
<path d="M19.4011 15.4582H21.0041C21.2096 15.4582 21.3329 15.294 21.3329 15.1294V10.7317C21.3329 10.5261 21.1686 10.4028 21.0041 10.4028H19.4011C19.1956 10.4028 19.0723 10.5671 19.0723 10.7317V15.0884C19.0723 15.2939 19.2365 15.4582 19.4011 15.4582V15.4582Z" fill="#9E62B3" stroke="#9E62B3" stroke-width="0.4"/>
<path d="M23.3874 15.4587H24.9904C25.196 15.4587 25.3192 15.2944 25.3192 15.1298V8.96459C25.3192 8.80031 25.155 8.63574 24.9904 8.63574H23.3874C23.1819 8.63574 23.0586 8.80002 23.0586 8.96459V15.1298C23.0586 15.2944 23.2229 15.4587 23.3874 15.4587Z" fill="#9E62B3" stroke="#9E62B3" stroke-width="0.4"/>
</svg>
