<svg width="24" height="24" viewBox="0 0 24 24" fill="none" xmlns="http://www.w3.org/2000/svg">
<path fill-rule="evenodd" clip-rule="evenodd" d="M9.09126 19.9999C9.89459 19.9999 10.5458 19.3487 10.5458 18.5454C10.5458 17.742 9.89459 17.0908 9.09126 17.0908C8.28794 17.0908 7.63672 17.742 7.63672 18.5454C7.63672 19.3487 8.28794 19.9999 9.09126 19.9999Z" stroke="#9F9DA6" stroke-width="2" stroke-linecap="round" stroke-linejoin="round"/>
<path fill-rule="evenodd" clip-rule="evenodd" d="M17.8178 19.9999C18.6212 19.9999 19.2724 19.3487 19.2724 18.5454C19.2724 17.742 18.6212 17.0908 17.8178 17.0908C17.0145 17.0908 16.3633 17.742 16.3633 18.5454C16.3633 19.3487 17.0145 19.9999 17.8178 19.9999Z" stroke="#9F9DA6" stroke-width="2" stroke-linecap="round" stroke-linejoin="round"/>
<path d="M7.39636 7.63636H20L18.7782 13.7382C18.6409 14.4293 18.0281 14.9226 17.3236 14.9091H9.63636C8.90144 14.9153 8.27734 14.3724 8.18182 13.6436L7.07636 5.26545C6.98154 4.54225 6.36576 4.0011 5.63636 4H4" stroke="#9F9DA6" stroke-width="2" stroke-linecap="round" stroke-linejoin="round"/>
</svg>
