<svg width="41" height="40" viewBox="0 0 41 40" fill="none" xmlns="http://www.w3.org/2000/svg">
<path d="M17.3558 14.2558C17.4436 14.2558 17.532 14.2488 17.62 14.2343L19.8445 13.8638C19.9888 13.8399 20.1351 13.8399 20.2793 13.8638L22.5085 14.235C23.0249 14.3182 23.552 14.1487 23.9184 13.7808C24.1856 13.5129 24.1849 13.0787 23.9167 12.8115C23.6487 12.5443 23.2146 12.545 22.9477 12.8132C22.8917 12.8691 22.8097 12.8952 22.7306 12.8823L20.5045 12.5118C20.2112 12.4628 19.9136 12.463 19.6195 12.5118L17.396 12.8818C17.3159 12.8954 17.232 12.8682 17.1761 12.8125C16.9084 12.5447 16.4745 12.5443 16.2068 12.812C15.9391 13.0795 15.9388 13.5136 16.2063 13.7813C16.512 14.087 16.9275 14.2558 17.3558 14.2558L17.3558 14.2558Z" fill="url(#paint0_linear_10535_12734)" stroke="url(#paint1_linear_10535_12734)" stroke-width="0.5"/>
<path d="M22.4335 23.9731C22.1147 23.9731 21.8023 24.0334 21.5044 24.1519L20.0637 24.729L18.6209 24.1515C18.3238 24.0331 18.0114 23.9731 17.6927 23.9731C17.0249 23.9731 16.3966 24.2337 15.9244 24.7062C15.3435 25.2873 15.0848 26.1163 15.2319 26.9228L15.9923 31.1041C16.2086 32.2945 17.2439 33.1583 18.4539 33.1583H18.9975C19.3713 33.1583 19.733 33.077 20.0638 32.921C20.3942 33.077 20.7559 33.1583 21.1299 33.1583H21.6742C22.8842 33.1583 23.919 32.2942 24.1346 31.1041L24.8948 26.9236C25.0418 26.1159 24.7834 25.2871 24.203 24.7063C23.7302 24.2337 23.1017 23.9732 22.4336 23.9732L22.4335 23.9731ZM23.5456 26.6783L22.7854 30.8593C22.6879 31.3974 22.2201 31.7877 21.6736 31.7877H21.1294C20.8882 31.7877 20.6594 31.7136 20.4673 31.5738C20.3473 31.486 20.2055 31.4421 20.0638 31.4421C19.9222 31.4421 19.7807 31.4858 19.6605 31.5733C19.4678 31.7134 19.2386 31.7877 18.9972 31.7877H18.4536C17.9064 31.7877 17.4387 31.3971 17.3406 30.8588L16.5802 26.6771C16.5138 26.3126 16.6307 25.938 16.8936 25.6748C17.1071 25.4611 17.3908 25.3435 17.6925 25.3435C17.8369 25.3435 17.9784 25.3708 18.1125 25.4243L19.8089 26.1034C19.9724 26.1687 20.1548 26.1689 20.3186 26.1032L22.0131 25.4245C22.1476 25.371 22.2891 25.3435 22.4335 25.3435C22.7357 25.3435 23.0194 25.4611 23.2331 25.6748C23.4953 25.938 23.6122 26.3128 23.5455 26.6783L23.5456 26.6783Z" fill="url(#paint2_linear_10535_12734)" stroke="url(#paint3_linear_10535_12734)" stroke-width="0.5"/>
<path d="M19.5325 27.3551C19.5325 27.7313 19.2274 28.0364 18.8512 28.0364C18.4749 28.0364 18.1699 27.7313 18.1699 27.3551C18.1699 26.9789 18.4749 26.6738 18.8512 26.6738C19.2274 26.6738 19.5325 26.9788 19.5325 27.3551Z" fill="url(#paint4_linear_10535_12734)" stroke="url(#paint5_linear_10535_12734)" stroke-width="0.5"/>
<path d="M21.9543 27.3551C21.9543 27.7313 21.6493 28.0364 21.2731 28.0364C20.8968 28.0364 20.5918 27.7313 20.5918 27.3551C20.5918 26.9789 20.8968 26.6738 21.2731 26.6738C21.6493 26.6738 21.9543 26.9788 21.9543 27.3551Z" fill="url(#paint6_linear_10535_12734)" stroke="url(#paint7_linear_10535_12734)" stroke-width="0.5"/>
<path d="M19.5322 29.7772C19.5322 30.1535 19.2272 30.4582 18.8509 30.4582C18.4749 30.4582 18.1699 30.1535 18.1699 29.7772C18.1699 29.401 18.4749 29.0962 18.8509 29.0962C19.2272 29.0962 19.5322 29.401 19.5322 29.7772Z" fill="url(#paint8_linear_10535_12734)" stroke="url(#paint9_linear_10535_12734)" stroke-width="0.5"/>
<path d="M21.9538 29.7772C21.9538 30.1535 21.6491 30.4582 21.2728 30.4582C20.8968 30.4582 20.5918 30.1535 20.5918 29.7772C20.5918 29.401 20.8968 29.0962 21.2728 29.0962C21.6491 29.0962 21.9538 29.401 21.9538 29.7772Z" fill="url(#paint10_linear_10535_12734)" stroke="url(#paint11_linear_10535_12734)" stroke-width="0.5"/>
<path d="M35.0748 33.4276L36.0625 32.4767C35.6396 32.0376 33.8382 31.3893 31.1202 30.6987C28.539 30.0423 27.8131 23.115 27.9611 18.8884C30.2563 16.6883 32.616 13.1503 33.6766 7.53827C33.7469 7.16657 33.5021 6.80775 33.1304 6.7375C32.7599 6.6677 32.3999 6.91176 32.3297 7.2837C31.2932 12.7679 28.8935 16.8384 25.197 19.3822C22.7223 21.0856 20.4585 21.4972 20.0025 21.5658C17.4323 21.1267 15.2286 19.97 13.4119 18.1134C13.3727 18.0565 13.3242 18.0075 13.2699 17.965C12.2232 16.8619 11.3075 15.5228 10.5282 13.9478C8.8841 10.6257 8.49253 7.45334 8.4861 7.39887C8.4426 7.02287 8.10221 6.75255 7.72645 6.79722C7.35045 6.84073 7.08104 7.18111 7.1248 7.55687C7.14081 7.6948 7.53666 10.9751 9.28137 14.5182C10.0917 16.1638 11.0603 17.5879 12.1706 18.7786C12.2868 23.1541 11.5436 30.0534 9.00484 30.699C6.28675 31.3896 4.48541 32.0376 4.0625 32.477L5.05022 33.4279C5.05022 33.4279 5.03899 33.4446 5.00194 33.4726C5.0299 33.4515 5.72885 32.946 9.34262 32.0276C13.0027 31.0968 13.51 23.5328 13.5484 20.0753C15.3747 21.5791 17.5035 22.5479 19.8813 22.9361C19.9179 22.9419 19.955 22.945 19.9918 22.945C20.0159 22.945 20.0398 22.9435 20.064 22.9411C20.1773 22.9294 22.8733 22.6237 25.9091 20.557C26.1267 20.409 26.3492 20.2479 26.5753 20.0758C26.5863 23.2615 27.0195 31.071 30.7829 32.0281C34.3969 32.9462 35.0958 33.4521 35.1238 33.473C35.0863 33.4446 35.0748 33.4279 35.0748 33.4279L35.0748 33.4276Z" fill="url(#paint12_linear_10535_12734)" stroke="url(#paint13_linear_10535_12734)" stroke-width="0.5"/>
<defs>
<linearGradient id="paint0_linear_10535_12734" x1="15.125" y1="14.2558" x2="24.2342" y2="11.2232" gradientUnits="userSpaceOnUse">
<stop stop-color="#6B4DE0"/>
<stop offset="0.544792" stop-color="#9C42E3"/>
<stop offset="1" stop-color="#C339E5"/>
</linearGradient>
<linearGradient id="paint1_linear_10535_12734" x1="15.125" y1="14.2558" x2="24.2342" y2="11.2232" gradientUnits="userSpaceOnUse">
<stop stop-color="#6B4DE0"/>
<stop offset="0.544792" stop-color="#9C42E3"/>
<stop offset="1" stop-color="#C339E5"/>
</linearGradient>
<linearGradient id="paint2_linear_10535_12734" x1="14.1334" y1="33.1583" x2="26.2144" y2="32.2218" gradientUnits="userSpaceOnUse">
<stop stop-color="#6B4DE0"/>
<stop offset="0.544792" stop-color="#9C42E3"/>
<stop offset="1" stop-color="#C339E5"/>
</linearGradient>
<linearGradient id="paint3_linear_10535_12734" x1="14.1334" y1="33.1583" x2="26.2144" y2="32.2218" gradientUnits="userSpaceOnUse">
<stop stop-color="#6B4DE0"/>
<stop offset="0.544792" stop-color="#9C42E3"/>
<stop offset="1" stop-color="#C339E5"/>
</linearGradient>
<linearGradient id="paint4_linear_10535_12734" x1="18.022" y1="28.0364" x2="19.7125" y2="27.9128" gradientUnits="userSpaceOnUse">
<stop stop-color="#6B4DE0"/>
<stop offset="0.544792" stop-color="#9C42E3"/>
<stop offset="1" stop-color="#C339E5"/>
</linearGradient>
<linearGradient id="paint5_linear_10535_12734" x1="18.022" y1="28.0364" x2="19.7125" y2="27.9128" gradientUnits="userSpaceOnUse">
<stop stop-color="#6B4DE0"/>
<stop offset="0.544792" stop-color="#9C42E3"/>
<stop offset="1" stop-color="#C339E5"/>
</linearGradient>
<linearGradient id="paint6_linear_10535_12734" x1="20.4438" y1="28.0364" x2="22.1343" y2="27.9128" gradientUnits="userSpaceOnUse">
<stop stop-color="#6B4DE0"/>
<stop offset="0.544792" stop-color="#9C42E3"/>
<stop offset="1" stop-color="#C339E5"/>
</linearGradient>
<linearGradient id="paint7_linear_10535_12734" x1="20.4438" y1="28.0364" x2="22.1343" y2="27.9128" gradientUnits="userSpaceOnUse">
<stop stop-color="#6B4DE0"/>
<stop offset="0.544792" stop-color="#9C42E3"/>
<stop offset="1" stop-color="#C339E5"/>
</linearGradient>
<linearGradient id="paint8_linear_10535_12734" x1="18.022" y1="30.4582" x2="19.7122" y2="30.3347" gradientUnits="userSpaceOnUse">
<stop stop-color="#6B4DE0"/>
<stop offset="0.544792" stop-color="#9C42E3"/>
<stop offset="1" stop-color="#C339E5"/>
</linearGradient>
<linearGradient id="paint9_linear_10535_12734" x1="18.022" y1="30.4582" x2="19.7122" y2="30.3347" gradientUnits="userSpaceOnUse">
<stop stop-color="#6B4DE0"/>
<stop offset="0.544792" stop-color="#9C42E3"/>
<stop offset="1" stop-color="#C339E5"/>
</linearGradient>
<linearGradient id="paint10_linear_10535_12734" x1="20.4439" y1="30.4582" x2="22.1338" y2="30.3347" gradientUnits="userSpaceOnUse">
<stop stop-color="#6B4DE0"/>
<stop offset="0.544792" stop-color="#9C42E3"/>
<stop offset="1" stop-color="#C339E5"/>
</linearGradient>
<linearGradient id="paint11_linear_10535_12734" x1="20.4439" y1="30.4582" x2="22.1338" y2="30.3347" gradientUnits="userSpaceOnUse">
<stop stop-color="#6B4DE0"/>
<stop offset="0.544792" stop-color="#9C42E3"/>
<stop offset="1" stop-color="#C339E5"/>
</linearGradient>
<linearGradient id="paint12_linear_10535_12734" x1="0.587753" y1="33.473" x2="40.1991" y2="30.01" gradientUnits="userSpaceOnUse">
<stop stop-color="#6B4DE0"/>
<stop offset="0.544792" stop-color="#9C42E3"/>
<stop offset="1" stop-color="#C339E5"/>
</linearGradient>
<linearGradient id="paint13_linear_10535_12734" x1="0.587753" y1="33.473" x2="40.1991" y2="30.01" gradientUnits="userSpaceOnUse">
<stop stop-color="#6B4DE0"/>
<stop offset="0.544792" stop-color="#9C42E3"/>
<stop offset="1" stop-color="#C339E5"/>
</linearGradient>
</defs>
</svg>
